<svg xmlns="http://www.w3.org/2000/svg" xmlns:xlink="http://www.w3.org/1999/xlink" width="1080" zoomAndPan="magnify" viewBox="0 0 810 809.999993" height="1080" preserveAspectRatio="xMidYMid meet" version="1.0"><defs><g/><clipPath id="0052884ed3"><rect x="0" width="810" y="0" height="810"/></clipPath></defs><g transform="matrix(1, 0, 0, 1, 0, 0.000000000000039746)"><g clip-path="url(#0052884ed3)"><g fill="#14ba63" fill-opacity="1"><g transform="translate(-12.283014, 700.582914)"><g><path d="M 805.734375 0 L 634.65625 0 L 634.65625 -337.390625 C 634.65625 -362.734375 632.539062 -383.148438 628.3125 -398.640625 C 624.09375 -414.128906 614.414062 -421.875 599.28125 -421.875 C 581.675781 -421.875 565.304688 -409.375 550.171875 -384.375 C 535.035156 -359.382812 527.46875 -326.472656 527.46875 -285.640625 L 527.46875 0 L 355.875 0 L 355.875 -337.390625 C 355.875 -362.734375 353.847656 -383.148438 349.796875 -398.640625 C 345.753906 -414.128906 335.8125 -421.875 319.96875 -421.875 C 302.019531 -421.875 285.648438 -409.023438 270.859375 -383.328125 C 256.078125 -357.628906 248.6875 -323.132812 248.6875 -279.84375 L 248.6875 0 L 77.609375 0 L 77.609375 -280.890625 C 77.609375 -337.921875 72.769531 -382.890625 63.09375 -415.796875 C 53.414062 -448.710938 43.472656 -472.382812 33.265625 -486.8125 C 26.222656 -495.96875 21.644531 -501.953125 19.53125 -504.765625 C 19.53125 -505.472656 19.179688 -506.351562 18.484375 -507.40625 L 155.765625 -550.171875 L 155.765625 -549.125 L 156.8125 -549.125 L 158.921875 -547.015625 C 160.335938 -544.898438 162.453125 -542.429688 165.265625 -539.609375 C 171.242188 -531.515625 178.015625 -520.335938 185.578125 -506.078125 C 193.148438 -491.828125 199.753906 -473.789062 205.390625 -451.96875 C 223.335938 -485.050781 247.445312 -509.6875 277.71875 -525.875 C 308 -542.070312 341.96875 -550.171875 379.625 -550.171875 C 411.3125 -550.171875 437.273438 -543.921875 457.515625 -531.421875 C 477.753906 -518.929688 493.503906 -500.71875 504.765625 -476.78125 C 523.773438 -502.832031 546.390625 -521.578125 572.609375 -533.015625 C 598.835938 -544.453125 627.441406 -550.171875 658.421875 -550.171875 C 714.035156 -550.171875 752.488281 -533.097656 773.78125 -498.953125 C 795.082031 -464.816406 805.734375 -419.234375 805.734375 -362.203125 Z M 805.734375 0 "/></g></g></g></g></g></svg>